<svg width="20" height="20" viewBox="0 0 20 20" fill="none" xmlns="http://www.w3.org/2000/svg">
<path fill-rule="evenodd" clip-rule="evenodd" d="M10 3.71568C8.07329 1.99187 5.9158 1.75072 4.1673 2.54997C2.32059 3.3941 1.04167 5.35419 1.04167 7.61425C1.04167 9.83553 1.96708 11.53 3.1806 12.8965C4.15239 13.9908 5.34185 14.9066 6.39235 15.7155C6.63049 15.8988 6.86148 16.0767 7.08118 16.2499C7.50805 16.5864 7.96629 16.9452 8.43069 17.2166C8.89488 17.4879 9.42467 17.7083 10 17.7083C10.5753 17.7083 11.1051 17.4879 11.5693 17.2166C12.0337 16.9452 12.492 16.5864 12.9188 16.2499C13.1385 16.0767 13.3695 15.8988 13.6076 15.7155C14.6581 14.9066 15.8476 13.9908 16.8194 12.8965C18.0329 11.53 18.9583 9.83553 18.9583 7.61425C18.9583 5.35419 17.6794 3.3941 15.8327 2.54997C14.0842 1.75072 11.9267 1.99187 10 3.71568Z" fill="#EA580C"/>
</svg>
